<svg xmlns="http://www.w3.org/2000/svg" xmlns:xlink="http://www.w3.org/1999/xlink" width="128" height="128" viewBox="0 0 12.7 12.7"><defs><linearGradient id="a"><stop offset="0" style="stop-color:#7500ff;stop-opacity:1"/><stop offset=".255" style="stop-color:#cd00ed;stop-opacity:1"/><stop offset=".686" style="stop-color:#d64376;stop-opacity:1"/><stop offset=".923" style="stop-color:#db643b;stop-opacity:1"/><stop offset="1" style="stop-color:#e08600;stop-opacity:1"/></linearGradient><linearGradient xlink:href="#a" id="b" x1="7.027" x2="9.862" y1="-.235" y2="4.483" gradientTransform="translate(-4.946 2.412)" gradientUnits="userSpaceOnUse"/></defs><rect width="12.7" height="12.7" rx="2" ry="2" style="fill:#000;stroke-width:.264583"/><g aria-label="TERM 41" style="font-weight:800;font-size:4.7625px;font-family:&quot;Cedarva Mono&quot;;-inkscape-font-specification:&quot;Cedarva Mono, Ultra-Bold&quot;;fill:url(#b);stroke-width:.0993734"><path d="M1.745 5.017V2.264H1.01V1.73h2.105v.534h-.733v2.753zm2.19 0V1.73h2.01v.534H4.578v.776H5.64v.534H4.578v.91h1.367v.533zm3.463 0h-.643V1.73h1.12q.137 0 .266.029.133.024.247.09.12.067.21.172.09.1.143.224.057.119.076.252.024.134.024.272 0 .128-.02.257-.018.128-.07.248-.048.119-.134.223-.081.1-.19.167.1.062.171.152.076.09.124.196.047.104.062.224.019.114.019.228v.257q0 .077.014.157.014.077.062.139h-.643q-.043-.062-.062-.139-.014-.08-.014-.157v-.257q0-.062-.005-.124 0-.066-.01-.128-.004-.067-.019-.129t-.038-.119q-.023-.062-.071-.11-.043-.052-.105-.052h-.514Zm.476-1.748q.057 0 .11-.02.052-.023.09-.061.038-.043.062-.09.029-.053.038-.105.014-.058.02-.115.004-.057.004-.11 0-.056-.005-.114-.005-.057-.019-.11-.01-.052-.038-.104-.024-.052-.062-.09-.038-.043-.09-.062-.053-.024-.11-.024h-.476v1.005Zm1.581 1.748V1.73h.653l.528 1.644.529-1.644h.652v3.287h-.595v-.658q0-.233.005-.462.01-.233.028-.462l.039-.457q.023-.233.042-.462l-.49 1.515h-.42l-.49-1.515q.02.229.038.462.024.229.043.457.02.229.024.462.01.229.01.462v.658z" style="stroke-width:.0993739"/><path d="M7.998 10.97v-.62H6.717v-.538l1.2-2.128h.629l-1.2 2.128h.652v-.638h.595v.638h.21v.539h-.21v.619zm2.462 0V8.327l-.424.41-.347-.296.771-.757h.638v3.286z" style="stroke-width:.0993739"/></g></svg>