<svg version="1.1" xmlns="http://www.w3.org/2000/svg" style="background: transparent;" viewBox="377.48 325.6 325.05 325.08">

<path d="M0 0 C1.44797414 -0.00573832 1.44797414 -0.00573832 2.92520028 -0.01159257 C6.15073563 -0.021888 9.37609182 -0.01793691 12.60163879 -0.01396179 C14.91814844 -0.01831026 17.23465665 -0.02349386 19.55116272 -0.02944946 C25.83855971 -0.04283846 32.12589658 -0.04341806 38.41330504 -0.04088616 C43.66651401 -0.03981604 48.91971083 -0.04470106 54.17291719 -0.04949158 C67.27996319 -0.06122146 80.38697498 -0.06036197 93.49402318 -0.05393478 C104.85689242 -0.04877046 116.21967581 -0.06000924 127.58252808 -0.07903299 C139.26714396 -0.09844443 150.9517193 -0.10666134 162.63635141 -0.10290974 C169.18936268 -0.10109932 175.74229539 -0.10370879 182.29529381 -0.11762428 C188.46197071 -0.13022913 194.62847638 -0.12823323 200.79515076 -0.11521339 C203.0525347 -0.11285359 205.30993079 -0.11556083 207.5673008 -0.12383652 C225.13502526 -0.18357259 242.80294521 0.56113113 256.51887512 13.29975891 C267.20919468 25.46878481 272.56583313 38.04157227 272.50895691 54.16355896 C272.51348802 55.1203001 272.51801913 56.07704124 272.52268755 57.06277454 C272.53528057 60.24745087 272.53371447 63.43195507 272.53205872 66.61665344 C272.53804722 68.9088869 272.54485351 71.20111835 272.55241394 73.49334717 C272.57005023 79.70644398 272.57476838 85.91948566 272.57604551 92.13260508 C272.57746924 96.0195043 272.58174308 99.90638961 272.58703995 103.79328537 C272.60458027 116.66845765 272.61388117 129.54358556 272.612379 142.41876806 C272.61229909 143.11168254 272.61221917 143.80459702 272.61213684 144.51850891 C272.61205508 145.21227921 272.61197332 145.90604951 272.61188908 146.62084316 C272.61107701 157.85225148 272.63019832 169.08352544 272.65841357 180.31489493 C272.68722107 191.87416078 272.70058421 203.43335511 272.69922602 214.99265754 C272.69871756 221.47142995 272.70433669 227.95005028 272.72558212 234.42879105 C272.74503555 240.52741656 272.74504033 246.62574606 272.73054886 252.7243824 C272.72846834 254.95309828 272.73311607 257.18183303 272.74526978 259.41051674 C272.83282707 276.58947103 271.95373784 291.02473781 261.24153137 305.26069641 C260.62922668 306.09343079 260.016922 306.92616516 259.38606262 307.78413391 C256.95603713 310.59039286 254.44967773 312.60254908 251.42903137 314.76069641 C250.43258606 315.49288391 249.43614075 316.22507141 248.40950012 316.97944641 C234.86518573 325.02698116 221.06745146 324.97778814 205.78962708 324.89179993 C203.4522294 324.89694702 201.11483561 324.90423422 198.77745056 324.91348267 C192.46973502 324.93190086 186.16244549 324.91911972 179.85474801 324.89939237 C173.90657613 324.88460334 167.95844793 324.8906263 162.01026502 324.89544927 C150.22587507 324.90399008 138.44165214 324.88742472 126.65730286 324.85762024 C115.24967949 324.82876941 103.84229647 324.82171202 92.43464661 324.83711243 C79.97619902 324.85390867 67.51786518 324.85787555 55.05941457 324.84040207 C48.47745477 324.83132687 41.89560062 324.82716666 35.31363869 324.83644295 C29.12708078 324.8441295 22.94086713 324.83190193 16.75436783 324.80459404 C14.49053786 324.79773494 12.22667559 324.7975855 9.96284676 324.80480957 C-3.84117096 324.84376911 -15.8411668 324.79785019 -27.69596863 316.76069641 C-28.55061707 316.19350891 -29.4052655 315.62632141 -30.28581238 315.04194641 C-40.97393471 307.34244596 -48.95248058 296.39291987 -51.3061552 283.18798351 C-51.83455 278.60010712 -51.90659148 274.1156201 -51.90563965 269.50222778 C-51.90931634 268.53691169 -51.91299302 267.5715956 -51.91678113 266.5770275 C-51.92776929 263.35154253 -51.93165349 260.12608983 -51.93547058 256.90058899 C-51.94173882 254.58407999 -51.94838594 252.26757198 -51.9553833 249.95106506 C-51.97638013 242.35245966 -51.9867804 234.75385415 -51.99674988 227.15522766 C-52.00079882 224.53571245 -52.00491579 221.91619735 -52.00909996 219.29668236 C-52.02596085 208.39933568 -52.04059624 197.50199188 -52.0478487 186.60463428 C-52.04975834 183.78124808 -52.05167872 180.95786188 -52.05363464 178.13447571 C-52.05411838 177.43280624 -52.05460212 176.73113678 -52.05510052 176.0082046 C-52.06339837 164.64531919 -52.08873534 153.28253913 -52.12121532 141.91969971 C-52.15434104 130.23508984 -52.17230228 118.55053343 -52.17549294 106.86587638 C-52.17784087 100.31282511 -52.18676861 93.75994064 -52.21195412 87.20693398 C-52.23527327 81.04023383 -52.2394524 74.87380987 -52.22919273 68.70707703 C-52.22869824 66.44968432 -52.23499312 64.19227783 -52.24874878 61.93492699 C-52.32813132 48.13065164 -52.29742295 36.18065403 -44.25846863 24.32319641 C-43.69128113 23.46854797 -43.12409363 22.61389954 -42.53971863 21.73335266 C-32.25856631 7.4614899 -17.44352257 -0.073776 0 0 Z " fill="#000000" transform="translate(429.7584686279297,325.7393035888672)"/>
<path d="M0 0 C0.33 0 0.66 0 1 0 C1 24.42 1 48.84 1 74 C4.96 74 8.92 74 13 74 C13 77.3 13 80.6 13 84 C9.04 84 5.08 84 1 84 C1 88.95 1 93.9 1 99 C-2.63 99 -6.26 99 -10 99 C-10 94.05 -10 89.1 -10 84 C-25.51 84 -41.02 84 -57 84 C-55.49644254 80.24110634 -54.38765808 77.86780056 -52.12890625 74.69921875 C-51.56042969 73.89548828 -50.99195313 73.09175781 -50.40625 72.26367188 C-49.7978125 71.41353516 -49.189375 70.56339844 -48.5625 69.6875 C-47.28197495 67.87931483 -46.00203326 66.0707164 -44.72265625 64.26171875 C-43.77156982 62.92052979 -43.77156982 62.92052979 -42.80126953 61.55224609 C-40.33456008 58.05712809 -37.91333929 54.53208177 -35.5 51 C-30.78583466 44.11572473 -26.0033376 37.28058612 -21.21118164 30.45043945 C-16.98422709 24.42051297 -12.79381488 18.36673967 -8.63867188 12.28710938 C-7.43041224 10.52148511 -6.21719478 8.75947537 -5 7 C-4.54383301 6.3395166 -4.08766602 5.6790332 -3.61767578 4.99853516 C-2.43799402 3.31369787 -1.22217165 1.65427393 0 0 Z " fill="#BF6E9D" transform="translate(560,517)"/>
<path d="M0 0 C8.50442769 3.86090582 12.95425307 9.97100614 17.046875 18.15625 C17.541875 25.08625 17.541875 25.08625 18.046875 32.15625 C2.866875 32.15625 -12.313125 32.15625 -27.953125 32.15625 C-24.98839206 42.56873441 -24.98839206 42.56873441 -17.66015625 48.7578125 C-12.95010042 51.19100151 -8.12125684 50.78120073 -2.953125 50.15625 C1.96399545 47.83179306 4.78217325 44.38115815 8.046875 40.15625 C11.86784739 40.68694061 14.10858903 41.65326566 17.046875 44.15625 C14.90866601 50.6500699 9.91336745 54.91291874 4.07421875 58.30078125 C-3.77659423 61.80345166 -11.4109587 62.21057041 -19.515625 59.53125 C-28.03958975 56.13581176 -32.12238032 51.7831973 -36.0078125 43.5234375 C-39.17249965 35.5986424 -39.3785253 25.83219416 -36.89453125 17.68359375 C-29.87816012 2.64308003 -16.48126748 -4.70893357 0 0 Z " fill="#A962C1" transform="translate(503.953125,381.84375)"/>
<path d="M0 0 C3.34740149 1.60836108 6.28503649 3.45820045 9 6 C9.495 7.485 9.495 7.485 10 9 C10.66 9 11.32 9 12 9 C12.20625 8.4225 12.4125 7.845 12.625 7.25 C15.01964374 3.33149206 18.72751322 1.42416226 23 0 C29.22187421 -0.5079081 34.74503901 -0.75354356 40 3 C46.67751276 9.98103607 47.29287905 15.28438648 47.1953125 24.55078125 C47.1924826 25.56472458 47.18965271 26.57866791 47.18673706 27.62333679 C47.17556625 30.85317927 47.15046711 34.08274171 47.125 37.3125 C47.1149662 39.50585536 47.10584105 41.69921508 47.09765625 43.89257812 C47.07563701 49.2618262 47.04112825 54.63086566 47 60 C43.7 60 40.4 60 37 60 C36.970271 58.09323486 36.970271 58.09323486 36.93994141 56.14794922 C36.86369114 51.41777217 36.77500371 46.68789495 36.68261719 41.95800781 C36.64440761 39.91347181 36.6095409 37.86887043 36.578125 35.82421875 C36.53230013 32.87997114 36.4743344 29.93617052 36.4140625 26.9921875 C36.40251129 26.0825827 36.39096008 25.17297791 36.37905884 24.23580933 C36.26920075 19.47850307 35.95925912 15.42634255 34 11 C32.33317313 9.95324287 32.33317313 9.95324287 30 10 C28.700625 9.87625 27.40125 9.7525 26.0625 9.625 C22.58694493 9.66383302 22.05545482 9.95660058 19.125 12.25 C16.29073367 15.91787407 14.76752435 18.55368527 14.68115234 23.21777344 C14.66128265 24.03832214 14.64141296 24.85887085 14.62094116 25.70428467 C14.60361435 27.01855438 14.60361435 27.01855438 14.5859375 28.359375 C14.56657135 29.26375305 14.5472052 30.1681311 14.5272522 31.09991455 C14.46756169 33.98318099 14.42111314 36.86648758 14.375 39.75 C14.33681053 41.70704848 14.29775823 43.66408033 14.2578125 45.62109375 C14.16186875 50.41392711 14.07779873 55.20683915 14 60 C10.7 60 7.4 60 4 60 C3.9906543 58.76435303 3.98130859 57.52870605 3.97167969 56.25561523 C3.93166264 51.65011178 3.86587125 47.0452681 3.79248047 42.44018555 C3.76433868 40.45101427 3.74309049 38.46173257 3.72900391 36.47241211 C3.70748018 33.6047338 3.66078188 30.73837351 3.609375 27.87109375 C3.60814636 26.98852402 3.60691772 26.10595428 3.60565186 25.19664001 C3.46813661 19.3361941 2.40742729 15.80938351 -1 11 C-4.21808847 9.39095576 -7.5101111 9.54362991 -11 10 C-14.88017482 11.98320047 -16.23706199 14.11032665 -17.60473633 18.09936523 C-19.0891219 22.77910802 -19.47080624 27.08820563 -19.51171875 31.97265625 C-19.52966995 32.78117538 -19.54762115 33.58969452 -19.56611633 34.42271423 C-19.61968544 36.96925862 -19.65394079 39.51562157 -19.6875 42.0625 C-19.72072044 43.80406144 -19.75521437 45.54559908 -19.79101562 47.28710938 C-19.87537993 51.52460737 -19.94244258 55.76205658 -20 60 C-23.3 60 -26.6 60 -30 60 C-30 40.53 -30 21.06 -30 1 C-26.37 1 -22.74 1 -19 1 C-18.67 2.32 -18.34 3.64 -18 5 C-17.53851562 4.6390625 -17.07703125 4.278125 -16.6015625 3.90625 C-11.19694782 0.06106959 -6.59571988 -1.46120563 0 0 Z " fill="#E0806B" transform="translate(608,381)"/>
<path d="M0 0 C18.48 0 36.96 0 56 0 C56 3.3 56 6.6 56 10 C48.41 10 40.82 10 33 10 C33 37.72 33 65.44 33 94 C29.37 94 25.74 94 22 94 C22 66.28 22 38.56 22 10 C14.74 10 7.48 10 0 10 C0 6.7 0 3.4 0 0 Z " fill="#9355E0" transform="translate(417,347)"/>
<path d="M0 0 C6.93 0 13.86 0 21 0 C21 31.02 21 62.04 21 94 C17.37 94 13.74 94 10 94 C10 66.28 10 38.56 10 10 C5.05 10 0.1 10 -5 10 C-3 5 -3 5 0 0 Z " fill="#DE7F69" transform="translate(603,522)"/>
<path d="M0 0 C3 1 3 1 5 2 C3.94124926 5.40312738 2.99097846 8.01353231 1 11 C0.33613281 10.86980469 -0.32773437 10.73960937 -1.01171875 10.60546875 C-6.83090934 9.60744734 -6.83090934 9.60744734 -12 12.0625 C-15.95303998 17.86852747 -16.31850578 23.31633148 -16.4140625 30.1171875 C-16.43342865 30.97434357 -16.4527948 31.83149963 -16.4727478 32.71463013 C-16.53221256 35.43465428 -16.57879569 38.15472152 -16.625 40.875 C-16.6632103 42.72658028 -16.70226378 44.57814337 -16.7421875 46.4296875 C-16.83788664 50.95298425 -16.92203906 55.47636416 -17 60 C-20.3 60 -23.6 60 -27 60 C-27 40.53 -27 21.06 -27 1 C-23.7 1 -20.4 1 -17 1 C-16.67 2.98 -16.34 4.96 -16 7 C-15.236875 6.21625 -14.47375 5.4325 -13.6875 4.625 C-9.20858916 0.25024988 -6.11969626 -0.61911324 0 0 Z " fill="#C16E9E" transform="translate(562,381)"/>
<path d="M0 0 C0.33 0 0.66 0 1 0 C1 13.53 1 27.06 1 41 C-8.57 41 -18.14 41 -28 41 C-22.4193858 30.95489443 -22.4193858 30.95489443 -19.5625 27.1875 C-14.78806198 20.76955351 -10.22886156 14.20701777 -5.66040039 7.64135742 C-5.07250732 6.79806885 -4.48461426 5.95478027 -3.87890625 5.0859375 C-3.3485376 4.3232959 -2.81816895 3.5606543 -2.27172852 2.77490234 C-1 1 -1 1 0 0 Z " fill="#010101" transform="translate(549,550)"/>
<path d="M0 0 C4.96825772 2.17889564 8.54039969 5.3540433 10.81640625 10.34375 C10.81640625 11.66375 10.81640625 12.98375 10.81640625 14.34375 C-0.40359375 14.34375 -11.62359375 14.34375 -23.18359375 14.34375 C-21.8700959 7.77626075 -18.91071453 4.62863498 -13.87109375 0.40625 C-9.21413284 -1.43487408 -4.79485083 -1.44102852 0 0 Z " fill="#030203" transform="translate(500.18359375,390.65625)"/>
</svg>