<?xml version="1.0" encoding="UTF-8" standalone="no"?>
<!-- Created with Inkscape (http://www.inkscape.org/) -->

<svg
   width="128"
   height="128"
   viewBox="0 0 12.7 12.7"
   version="1.1"
   id="icon"
   inkscape:version="1.4.3 (0d15f75042, 2025-12-25)"
   sodipodi:docname="icon.svg"
   xmlns:inkscape="http://www.inkscape.org/namespaces/inkscape"
   xmlns:sodipodi="http://sodipodi.sourceforge.net/DTD/sodipodi-0.dtd"
   xmlns:xlink="http://www.w3.org/1999/xlink"
   xmlns="http://www.w3.org/2000/svg"
   xmlns:svg="http://www.w3.org/2000/svg">
  <sodipodi:namedview
     id="namedview1"
     pagecolor="#505050"
     bordercolor="#ffffff"
     borderopacity="1"
     inkscape:showpageshadow="0"
     inkscape:pageopacity="0"
     inkscape:pagecheckerboard="1"
     inkscape:deskcolor="#505050"
     inkscape:document-units="mm"
     inkscape:zoom="8"
     inkscape:cx="-1.75"
     inkscape:cy="39.375"
     inkscape:window-width="1920"
     inkscape:window-height="1043"
     inkscape:window-x="0"
     inkscape:window-y="0"
     inkscape:window-maximized="1"
     inkscape:current-layer="layer1"
     inkscape:lockguides="false" />
  <defs
     id="defs1">
    <linearGradient
       id="linearGradient3"
       inkscape:collect="always">
      <stop
         style="stop-color:#800550;stop-opacity:1;"
         offset="0"
         id="stop3" />
      <stop
         style="stop-color:#ffaa00;stop-opacity:1;"
         offset="1"
         id="stop4" />
    </linearGradient>
    <linearGradient
       inkscape:collect="always"
       xlink:href="#linearGradient3"
       id="linearGradient4"
       x1="6.8049493"
       y1="2.4863508"
       x2="12.879118"
       y2="8.5605192"
       gradientUnits="userSpaceOnUse"
       gradientTransform="matrix(1.1836056,0,0,1.1836058,-4.3817576,-1.1430232)" />
  </defs>
  <g
     inkscape:label="Layer 1"
     inkscape:groupmode="layer"
     id="layer1">
    <rect
       style="fill:#000000;stroke-width:0.264583"
       id="rect1"
       width="12.7"
       height="12.7"
       x="0"
       y="4.6566129e-11"
       rx="2"
       ry="2" />
    <g
       id="text1"
       style="font-weight:600;font-size:3.75796px;font-family:-inkscape-font-specification:'Cedarva Mono, Semi-Bold';fill:url(#linearGradient4);stroke-width:0.313654"
       transform="scale(0.91130647,1.0973257)"
       aria-label="TERM 41">
      <path
         d="M 3.1153516,4.4156075 V 2.1758632 H 2.4915302 V 1.822615 H 4.1525486 V 2.1758632 H 3.5287272 v 2.2397443 z m 1.6835675,0 V 1.822615 H 6.3847782 V 2.1758632 H 5.2085367 V 2.8898757 H 6.1442688 V 3.2431239 H 5.2085367 v 0.8192353 h 1.1762415 v 0.3532483 z m 2.2247137,0 V 1.822615 h 0.8943945 q 0.1052229,0 0.2066878,0.022548 0.101465,0.01879 0.191656,0.067643 0.093949,0.048853 0.1615923,0.1277707 0.071401,0.078917 0.1127388,0.1728661 0.045095,0.093949 0.060127,0.1991719 0.01879,0.101465 0.01879,0.2066878 0,0.101465 -0.01879,0.2066878 -0.015032,0.101465 -0.060127,0.195414 -0.041338,0.093949 -0.1127388,0.1728661 -0.067643,0.078917 -0.1615923,0.1277707 0.082675,0.045095 0.1465604,0.1202547 0.067643,0.071401 0.1052229,0.1578343 0.041338,0.086433 0.056369,0.1803821 0.015032,0.093949 0.015032,0.187898 V 4.178856 q 0,0.063885 0.011274,0.1277706 0.011274,0.060127 0.048853,0.1089809 H 8.2900654 Q 8.2524858,4.366754 8.2412119,4.3066266 8.229938,4.2427413 8.229938,4.178856 V 3.9684102 q 0,-0.056369 -0.00376,-0.1127388 Q 8.2224221,3.795544 8.2111482,3.7391746 8.1998743,3.6790473 8.1810845,3.6264358 8.1622947,3.5700664 8.1284731,3.521213 8.0984094,3.4723595 8.045798,3.4422958 7.9931865,3.4122321 7.9368171,3.4122321 H 7.4332505 V 4.4156075 Z M 7.9180273,3.0589839 q 0.078917,0 0.1503184,-0.033822 0.075159,-0.03758 0.1164968,-0.1014649 0.045096,-0.067643 0.060127,-0.1465604 0.015032,-0.078917 0.015032,-0.1578344 0,-0.082675 -0.015032,-0.1578343 Q 8.229938,2.382551 8.1848425,2.3149078 8.1435049,2.2472645 8.0683457,2.2134428 7.9969445,2.1758632 7.9180273,2.1758632 H 7.4332505 v 0.8831207 z m 1.258918,1.3566236 V 1.822615 H 9.6429324 L 10.086372,3.1717227 10.529811,1.822615 h 0.465987 V 4.4156075 H 10.60497 V 3.897009 q 0,-0.195414 0.0038,-0.3870699 0.0038,-0.195414 0.01503,-0.3908279 0.01127,-0.1954139 0.02255,-0.3870699 0.01127,-0.1954139 0.01879,-0.3908278 l -0.42465,1.2964962 H 9.9322953 L 9.5076458,2.3412135 q 0.00752,0.1954139 0.01879,0.3908278 0.011274,0.191656 0.022548,0.3870699 0.011274,0.1954139 0.015032,0.3908279 0.00376,0.1916559 0.00376,0.3870699 v 0.5185985 z"
         id="path1" />
      <path
         d="M 8.045798,9.1130576 V 8.598217 H 6.9935692 V 8.2449688 L 8.0044604,6.5200651 H 8.4291099 L 7.4182186,8.2449688 H 8.045798 V 7.6662429 H 8.4366258 V 8.2449688 H 8.6395557 V 8.598217 H 8.4366258 v 0.5148406 z m 1.9466247,0 V 6.9484725 L 9.5790471,7.3167526 9.3498115,7.091275 9.9924227,6.5200651 h 0.4133753 v 2.5929925 z"
         id="path2" />
    </g>
  </g>
</svg>
